<?xml version="1.0" encoding="UTF-8"?>
<svg id="Capa_1" data-name="Capa 1" xmlns="http://www.w3.org/2000/svg" viewBox="0 0 1163.17 636.26">
  <defs>
    <style>
      .cls-1 {
        fill: #e3b623;
      }

      .cls-1, .cls-2, .cls-3 {
        fill-rule: evenodd;
        stroke-width: 0px;
      }

      .cls-2 {
        fill: #6e5005;
      }

      .cls-3 {
        fill: #fff;
      }
    </style>
  </defs>
  <path class="cls-1" d="m711,183.99h2l2-1h2c1.08-.99-1.69-.98,3-1h2c1.08-.99-1.69-.98,3-1h2c1.08-1-1.69-.98,3-1h2c1.08-1-1.69-.98,3-1h3c1.08-.99-1.69-.98,3-1h2c1.08-.99-1.69-.98,3-1h3c1.08-.99-1.69-.98,3-1h2c.2-.13.48-.61.59-.4.12.22.51-.29.67-.33,1.31-.28,1.34-.27,2.73-.27h2c.2-.13.48-.61.59-.4.12.22.51-.29.67-.33,1.31-.28,1.34-.27,2.73-.27h2c.2-.13.48-.61.59-.4.12.22.51-.29.67-.33,1.31-.28,1.34-.27,2.73-.27h3c.2-.13.48-.61.59-.4.12.22.51-.29.67-.33,1.31-.28,1.34-.27,2.73-.27h3c.2-.13.48-.61.59-.4.12.22.51-.29.67-.33,1.31-.28,1.34-.27,2.73-.27h3c.2-.13.48-.61.59-.4.12.22.51-.29.67-.33,1.31-.28,1.34-.27,2.73-.27h4c.2-.13.48-.61.59-.4.12.22.51-.29.67-.33,1.31-.28,1.34-.27,2.73-.27h4c1.05-.66.05-.57,2.09-.9.87-.14,2.01-.09,2.91-.1h4c1.17-.73,0-.45,2.17-.82,1.38-.24,2.44-.17,3.83-.18h5l7-1h6c2.07-1.3,5.62-.99,8-1h9c1.2-.75.01-.39,2.2-.79l42.88-.27c.64,0,2.3.04,2.88.12l3.05.94h9c1.08,0,3.07-.11,4.04-.03,2.31.21-.28-.18,1.77.23,2.14.44,1.01.05,2.2.79h6c.71,0,2.32-.06,2.96.04l3.04.96h5c.71,0,2.27-.05,2.91.1,1.91.44,1.07.27,2.09.9h4c.5,0,1.69,0,1.93.07,1.79.51,1.09.29,2.07.93h3c.5,0,1.69,0,1.93.07,1.79.51,1.09.29,2.07.93h3c.5,0,1.69,0,1.93.07,1.79.51,1.09.29,2.07.93h3c4.69.02,1.92,0,3,1h2c4.69.02,1.92,0,3,1h3c4.69.02,1.92,0,3,1h2c4.69.02,1.92,0,3,1h2l2,1h2c4.69.02,1.92,0,3,1h2l2,1h2l2,1h2l2,1h2l2,1h2l1,1h4c-1.12-4.18-64.44-85.62-66.56-88.43l-37.65-49.35c-2.9-3.16-2.53-1.89-7.57-2.43-5.43-.58-11.6-1.52-17.64-2.36-57.08-8.02-114.64-14.06-172.01-21.99L579,0l16,23c32.4,45.66,67.09,92.76,98.59,138.41,2.89,4.19,5.66,7.72,8.39,11.61,1.98,2.81,5.79,9.83,9.01,10.98h0Z"/>
  <path class="cls-3" d="m742,275c0,9.03,14.89,47.57,18.86,58.14,3.59,9.57,6.31,18.37,9.76,28.24l29.76,84.24c3.22,9.74,6.64,18.36,10.01,27.99,7.05,20.17,4.53,21.39,25.61,21.39,12.13,0,13.42-17.7,17.78-33.22l33.89-119.11c.06-.15.19-.47.32-.68,5.63,24.17,16.26,55.08,22.6,80.4,3.38,13.5,7.53,26.85,11.29,39.71,1.72,5.91,5.89,25.32,9.76,29.24,5.36,5.43,20.74,4.74,25.59.88,4.77-3.79,26.2-70.86,29.64-80.36,3.63-10.04,7.32-19.88,10.75-30.25l35.91-103.91c.93-13.41-15.92-10.71-25.53-10.71-8.11,0-10.01,8.48-12.13,14.87l-48.2,137.8c-1.66,4.44.57,1.95-2.68,4.32-.12-5.53-20.19-74.58-22.22-81.78l-17.13-60.87c-4.64-16.24-5.07-14.35-24.65-14.35-7.98,0-9.38,8.16-11.22,14.78-1.76,6.34-4.04,13.55-5.79,20.21l-33.99,123.01c-2.49-3.58-12.95-35.62-14.61-40.39l-35.76-102.24c-5.82-17.63-6.12-15.38-27.62-15.38-5.4,0-10,4.95-10,8h0Z"/>
  <path class="cls-3" d="m277,292c48.5,0,73.63,26.49,84,71h-163c.34-15.45,14.71-38.24,25.73-49.27,10.71-10.71,32.16-21.73,53.27-21.73h0Zm40-25.99h-2l-2-1-18-3c-4.69-.02-1.91,0-3-1h-1c-39.27-.14-65.19,5.66-92.75,33.24-30.65,30.67-42.97,73.91-32.25,116.75,9.71,38.83,37.51,70.11,75.38,82.62,9.86,3.26,14.45,4.12,26.18,5.82,28.11,4.08,64.96-6.47,84.68-24.21,9.85-8.86,14.85-13.3,22.77-25.23,4.03-6.07,26.1-37.09,7.8-40.81-2.72-.55-12.54-.32-15.87-.26-6.18.1-7.9,1.41-10.3,5.7-7.42,13.31-12.71,25.81-26.62,36.38-5.67,4.31-12.61,9.01-20.38,11.62-19.1,6.42-35.34,7.47-54.65,2.37-17.04-4.5-28.23-12.95-38.75-24.25-7.39-7.94-18.91-30.26-19.24-44.76h179c10.2,0,16.49,1.15,20.04-5.96,3.47-6.97-3.12-38-4.91-44.16-9.98-34.27-27.15-54.84-56.17-71.83-2.77-1.62-5.83-2.81-8.96-4.04l-6.41-2.59c-.28-.13-1.09-.56-1.32-.68l-1.27-.73h0Z"/>
  <path class="cls-1" d="m242.22,235.14c12.27,6.92,36.46,13.72,51.96,17.66,19.4,4.94,40.43,7.59,61.33,8.77,98.07,5.53,276.18-27.62,375.44-42.53,110.42-16.59,255.83-15.31,346.31,54.68,6.59,5.1,13.96,10.82,18.96,16.04,5.96,6.23,8.24,12.7,18.38,16.62,25.11,9.72,59.22-17.36,26.15-48.15-18.92-17.62-37.7-30.29-62.38-42.6-31.55-15.74-67.31-27.21-105.97-34.15-129.36-23.22-245.24,9.03-368.52,35.51-38.4,8.25-77,15.56-116.01,22.82-58.26,10.85-131.64,20.63-191.14,9.55-19.71-3.67-49.49-13.43-54.51-14.22h0Z"/>
  <path class="cls-3" d="m641,468c-27.16,0-44.37-7.97-62.25-25.75-38.78-38.55-30.02-114.61,24.58-141.92,5.67-2.84,8.35-3.97,15.25-5.75,31.33-8.07,67.5,5.2,86.43,31.4,24.78,34.31,19.87,89.42-7.25,116.78-3.79,3.83-6.04,6.22-10.47,9.53-3.83,2.86-8.47,5.87-12.93,8.07-8.24,4.06-21.47,7.64-33.36,7.64h0Zm-120-87c0,45.76,26.75,87.53,67.32,107.68,15.69,7.79,31.91,11.32,52.68,11.32,39.69,0,74-23.58,92.21-50.79,18.54-27.7,27.8-67.01,18.38-99.8-3.86-13.44-9.57-27.45-17.72-38.28-8.81-11.71-16.28-20.13-28.46-28.54-41.32-28.54-96.95-29.85-136.56,1.26-15.95,12.53-30.08,29.57-37.85,49.15-2.97,7.48-5.12,13.31-6.93,22.07-1.45,7.02-3.06,17.87-3.06,25.94h0Z"/>
  <path class="cls-1" d="m252,189c3.53-2.36,17.53-21.44,21.01-25.99l61.99-81.01,37.7,5.3c12.72,1.84,104.74,15.7,113.3,15.7l-23.19-15.81c-1.76-1.13-2.49-1.44-4.38-2.62-9.38-5.88-11.14-4.21-25.85-7.15L188.75,28.25c-15.21-3.04-30.06-5.83-44.75-9.25.88,3.28,4.27,7.93,6.2,10.8l47.61,74.39c10.56,16.89,47.54,72.23,54.2,84.8h0Z"/>
  <path class="cls-3" d="m0,209c0,7.89,26.02,56.09,31.33,66.67,2.84,5.65,4.97,10.96,7.67,16.33l48.39,96.61c4.02,8.19.33,77.08,1.62,94.38,1.04,13.89,11.75,12.01,22.99,12.01,15.95,0,12-16.68,12-38,0-17,.01-34,0-51-.01-18.6,2.12-17.24,12.67-38.33l75.95-153.13c2.37-6.59-.92-14.54-8.61-14.54-29.21,0-20.45-3.04-39.33,34.67l-48,97c-2.36,4.72-7.4,16.94-10.67,19.33L39.67,215.33c-8.81-17.61-6.66-15.33-29.67-15.33C4.95,200,0,203.61,0,209h0Z"/>
  <path class="cls-2" d="m242.22,235.14c5.02.8,34.79,10.55,54.51,14.22,59.5,11.09,132.88,1.31,191.14-9.55,39.01-7.27,77.61-14.58,116.01-22.82,123.28-26.48,239.16-58.72,368.52-35.51,38.67,6.94,74.42,18.41,105.97,34.15,24.68,12.31,43.45,24.99,62.38,42.6,33.07,30.79-1.04,57.87-26.15,48.15-10.14-3.93-12.42-10.39-18.38-16.62-5-5.22-12.36-10.94-18.96-16.04-90.48-69.99-235.89-71.27-346.31-54.68-99.27,14.91-277.37,48.07-375.44,42.53-20.9-1.18-41.93-3.83-61.33-8.77-15.5-3.95-39.69-10.75-51.96-17.66h0Zm593.77-69.15h-6l-1.42.59c-.19.04-.54.18-.78.22l-4.8.19h-5c-1.21.78.04.45-2.17.84-1.43.25-2.39.17-3.83.16h-4c-1.09.7,0,.58-2.09.92-.94.16-1.96.08-2.91.08h-4c-.2.13-.48.14-.59.41-.12.28-.51.3-.67.33-1.37.29-1.28.27-2.73.26h-4c-.2.13-.48.14-.59.41-.12.28-.51.3-.67.33-1.37.29-1.28.27-2.73.26h-3c-.2.13-.48.14-.59.41-.12.28-.51.3-.67.33-1.37.29-1.28.27-2.73.26h-3c-.2.13-.48.14-.59.41-.12.28-.51.3-.67.33-1.37.29-1.28.27-2.73.26h-3c-.2.13-.48.14-.59.41-.12.28-.51.3-.67.33-1.37.29-1.28.27-2.73.26h-2c-.2.13-.48.14-.59.41-.12.28-.51.3-.67.33-1.37.29-1.28.27-2.73.26h-2c-.2.13-.48.14-.59.41-.12.28-.51.3-.67.33-1.37.29-1.28.27-2.73.26h-2c-1.12,1.05,1.8,1.02-3,1h-3c-1.12,1.05,1.8,1.02-3,1h-2c-1.12,1.05,1.8,1.02-3,1h-3c-1.12,1.05,1.8,1.02-3,1h-2c-1.12,1.05,1.8,1.02-3,1h-2c-1.12,1.05,1.8,1.02-3,1h-2c-1.12,1.05,1.8,1.02-3,1h-2l-2,1h-2c-2.73,1.75,1.68,0-5.36,1.65l-95.4,20.6c-22.94,4.91-53.74,12.02-77.11,15.89-7.98,1.32-17.94,3.15-26.13,5.29l-34,5.86c-4.26.41-9.44,1.45-14.43,2.28-5.09.86-10.22,1.27-14.57,2.56l-34,3.96c-4.09-.06-8.18.92-14,.9h-1l-8,1h-7c-1.81,1.16-4.78,1.07-6.94,1.07-3.01,0-6.04-.06-9.06-.07h-18c-9.6.04-19.39-.59-27.31-1.68-5.22-.72-8.16-.94-13.27-1.73l-12.42-2.59h-1c-.61,0-1.57.04-1.93-.06-1.84-.53-1.05-.26-2.07-.94h-1c-4.8.02-1.88.05-3-1h-2l-2-1h-2l-2-1h-2l-2-1h-2l-2-1h-1l-2-1h-1c-4.8.02-1.88.05-3-1h-1l-2-1h-1l-2-1h-1l-2-1h-1l-2-1h-1l-2-1h-1l-1-1h-1c-3.92-.89-8.98-3.8-12.02-3.82-7.57-.06-14.89,11.12-1.68,17.53,21.58,10.47,36.52,14.45,58.12,20.88l3.58,1.43h1c4.8-.02,1.88-.05,3,1l18,3,2,1h2c9.13.17,25.22,4.09,43.99,4,15.37-.08,34.11,1,49.01-.22,4.7-.79,31.34-3.11,33.99-1.79,2.13-1.02,25.14-3,29.46-3,3.09-1.87,27.97-4.04,33.54-4.35,25.46-1.65,148.25-21.1,175-25.65,22-3.74,65.45-10.77,88.09-12.91l31.33-2.67c7.96-1.2,59.25-2.05,66.16-1,9.86,1.49,20.9.56,31.01,2,10.63,1.5,19.9,2.14,30.13,3.87,27.84,4.71,54.41,10.93,79.85,21.15,8.58,3.44,15.62,6.35,23.78,10.22,11.82,5.62,32.22,18.17,41.88,26.12,19.88,16.34,16.92,17.05,25.22,24.78,26.73,24.89,71.32,1.08,62.6-32.6-1.22-4.72-2.72-7.97-5.45-11.55l-12.18-12.82c-3.93-3.03-6.24-6.17-13.98-12.02-6.89-5.19-12.51-9.4-20.02-13.98-21.56-13.18-43.78-24.95-68.04-32.96l-24.01-7.99c-.19-.08-.54-.25-.69-.31-.15-.06-.47-.19-.68-.33h-2l-1-1h-2l-2-1h-2l-2-1h-2l-2-1h-2l-2-1h-2c-4.8.02-1.88.05-3-1h-2l-2-1h-2c-4.8.02-1.88.05-3-1h-2c-4.8.02-1.88.05-3-1h-3c-4.8.02-1.88.05-3-1h-2c-4.8.02-1.88.05-3-1h-3c-.61,0-1.57.04-1.93-.06-1.84-.53-1.05-.26-2.07-.94h-3c-.61,0-1.57.04-1.93-.06-1.84-.53-1.05-.26-2.07-.94h-3c-.61,0-1.57.04-1.93-.06-1.84-.53-1.05-.26-2.07-.94h-4c-.77,0-2.19.09-2.91-.08-1.96-.46-1.03-.24-2.09-.92h-5l-5.32-.68c-.16-.05-.47-.19-.68-.33h-6c-1.08,0-3.06.13-4.04.05-2.27-.2.24.18-1.77-.24-2.19-.45-.97-.02-2.2-.81h-69c-2.12,1.36-5.58,1.01-8,1h0Z"/>
  <path class="cls-1" d="m350,170h12v18l-11.98-1.19-.02-16.81Zm-17,0h12v17h-12v-17h0Zm17-24c6.51.15,12,5.73,12,12v6h-12v-18Zm-17,15c0-7.95,5.61-13.51,12-15v18h-12v-3Zm-90,63.99h1l1,1h1l2,1h1l2,1h1l2,1h1l2,1h1l2,1h1c4.69.02,1.92,0,3,1h1l2,1h1l2,1h2l2,1h2l2,1h2l2,1h2c4.69.02,1.92,0,3,1h1c.5,0,1.69,0,1.93.07,1.79.51,1.09.29,2.07.93h1c11.69.05,35.57,4.71,46.02,4.99,1.94.05,5.04-.2,6.98,1.01h18l6.94-1.05c3.02,0,6.03.06,9.06.05h7c.21-.13.57-.52.7-.3l2.35-.64c1.32-.17,3.54-.05,4.95-.06h1c0-24.29-5.33-46.09,13.94-56.05,6.21-3.21,11.75-2.94,21.06-2.94,1.43-2.7,2.44-4.59,3.94-7.06,1.71-2.81,3.26-4.55,4.06-7.94l-97.59-67.41c-2.77-1.89-3.79-3.29-7.41-3.59-.67,2.51-3.5,5.86-5.01,7.99l-17.99,24.01c-3.81,5.43-7.29,10.04-11.43,15.57l-35.29,47.71c-4.09,5.45-7.48,9.98-11.58,15.42-3.87,5.14-10.98,13.21-9.71,16.28h0Z"/>
  <path class="cls-3" d="m473.46,265c-1.72,9.71-.46,162.19-.46,186,0,38.69-4.51,44.02,19.04,44.04,12.12.01,15.07-3.83,14.99-16.02l-.02-218.38c-5.58.31-30.46,2.48-33.54,4.35h0Z"/>
  <path class="cls-3" d="m410,269.79v182.21c0,32.66-4.83,43.04,18.01,43.04,6.1,0,8.64.26,12.31-2.72,4.11-3.35,3.8-4.4,3.71-11.29-.84-69.62.12-143.07-.04-213.03-2.65-1.32-29.29,1-33.99,1.79h0Z"/>
  <path class="cls-1" d="m441,185c1.95,1.03,4.11,1.89,5.97,3.03l4.96,4.04c2.88,3.07,5.62,6.57,6.07,11.93,2.42-1.77,1.97-2.58,3.34-5.66,1.36-3.06,1.78-3.93,3.86-6.14,3.25-3.44,7.1-5.78,11.97-7.03,10.61-2.73,6.11,1.42,12.12-6.88l71.11-100.89c6.45-9.77,27.69-38.01,31.6-45.4-3.02-4.52-6.8-9.07-10.29-13.71-2.56-3.41-7.9-11.4-10.71-13.29-.93,3.49-13.16,19.24-15.57,22.43l-49.23,67.77c-2.77,4.07-5.25,6.96-8,11-14.23,20.9-33.39,45.82-48.78,67.22l-8.42,11.58h0Z"/>
  <path class="cls-1" d="m15,184c23.97,0,18.11,2.89,26,5,3.1-2.08,95.13-118.09,106-132,2.29-2.94,4.91-5.88,7-9-.78-3.34-1.57-4.18-3.19-6.81-1.38-2.25-2.25-4.1-3.62-6.38-2.1-3.49-5.49-10.83-8.19-12.81-.97,3.63-12.31,16.71-14.86,20.14-5.21,7-10.24,13.26-15.72,20.28l-46.65,60.35c-5.55,6.72-10.2,13.58-15.63,20.37-5.44,6.8-10.34,13.17-15.7,20.3-2.86,3.8-4.97,6.26-7.86,10.13-2.84,3.81-5.49,6.5-7.57,10.43h0Z"/>
  <path class="cls-3" d="m347,620c-12.12,0-19.3-2.76-26.77-10.23-32.03-32.03,17.29-80.26,49.55-48.55,23.94,23.54,4.72,58.78-22.78,58.78Zm-54-36c0,30.83,24.43,52,47,52,18.36,0,25.69-.93,39.87-12.13,35.18-27.79,15.83-88.87-33.87-88.87-28.04,0-53,21.42-53,49h0Z"/>
  <path class="cls-1" d="m444,162c2.62-3.91,6.08-7.92,9.23-11.77,3.43-4.2,27.76-33.45,28.77-37.23l-68.42-10.58c-12.09-1.86-23.36-3.37-34.72-5.27l-34.85-5.15c1.99,2.72,77.24,55.22,86.6,61.4,3.96,2.61,9.13,7.47,13.4,8.6h0Z"/>
  <path class="cls-3" d="m82,544v83c0,8.78,8.72,9.49,16,6,2.17-9.3,1-29.41,1-40h37v35c0,9.61,17,9.71,17-1v-83c0-10.26-17-8.52-17-2v35h-37v-35c0-6.52-17-8.26-17,2h0Z"/>
  <path class="cls-3" d="m949,542c0,15.71-1.4,80.7,1,91,7.81,3.75,38.72,2,49,2,11.57,0,9.5-17,3-17h-36v-24h36c6.99,0,6.99-16,0-16h-36v-24h33c10.61,0,9-4.74,9-12,0-2.33-2.67-5-5-5h-49c-2.33,0-5,2.67-5,5h0Z"/>
  <path class="cls-3" d="m538,542c0,16.92-2.16,65.06,2.66,76.34,9.36,21.89,44.76,22.94,58.08,7.4,5.31-6.19,8.26-14.56,8.26-25.74v-56c0-7.97-6.25-7-12-7-2.4,0-2.94,1.62-5,3,0,9.88,1.07,61.65-1.16,68.84-4.58,14.73-31.2,13.69-33.64-1.03l-.2-51.8c.01-17.68.8-19-12-19-2.33,0-5,2.67-5,5h0Z"/>
  <path class="cls-3" d="m747,561c0,35.58,44,27.09,44,41,0,5.8.62,9.96-3.17,13.83-6.76,6.9-22.12,5.56-25.4-4.26-2.83-8.48.97-12.57-10.43-12.57-12.51,0-6.38,17.32-2.61,23.61,10.64,17.73,43.45,18.44,54.33.12,10.22-17.2,5.3-37.04-16.59-44.87-5.12-1.83-15.24-4.24-19.64-7.36-6.13-4.35-3.52-12.48.16-15.83,1.83-1.66,6.62-3.67,9.33-3.67,15.87,0,8.79,18,17,18l11-1c2.21-9.49-.24-19.96-7.8-26.2-19.32-15.95-50.2-1.84-50.2,19.2h0Z"/>
  <path class="cls-1" d="m401,31c0,35.75-2.7,33.16,7.04,34.96l30.96,5.04v-37l-30.46-4.61c-4.54-.84-7.54-2.23-7.54,1.61Z"/>
  <path class="cls-3" d="m410,242.09l34-3.96c0-37.65,3.99-37.98-19.03-38.16-8.48-.07-14.04.48-14.95,13.05-.63,8.76-.03,20.03-.03,29.07h0Z"/>
  <path class="cls-3" d="m473,233.29l34-5.86c0-23.91,3.13-27.34-20.04-27.47-6.19-.03-12.81,1.13-13.9,9.11-.78,5.7-.06,17.85-.06,24.23h0Z"/>
  <path class="cls-1" d="m562,158v29c0,5.22,10.59,3,25,3v-32c0-5.01-8.52-3-22-3-2.3,0-3,.7-3,3h0Z"/>
  <path class="cls-1" d="m596,190c4.52.1,3.97,1,9,1h15v-36h-24v35Z"/>
  <path class="cls-1" d="m596,147h24v-9c0-8.59-3.29-14.21-6.96-19.04-3.54-4.65-9.53-8.34-17.04-8.96v37h0Z"/>
  <path class="cls-1" d="m152,182c2.24.52,2.3,1,5,1h17v-32h-22v31Z"/>
  <path class="cls-1" d="m562,144c0,5.22,10.59,3,25,3v-36c-11.19.93-25,14.97-25,33Z"/>
  <polygon class="cls-1" points="122 182 144 182 144 151 122 151 122 182"/>
  <path class="cls-1" d="m152,143h22v-8c0-12.73-9.75-24.73-22-25v33h0Z"/>
  <path class="cls-1" d="m378,38v23c4.99,1.16,13.26,3,19,3V29c-3.75.87-6.21,2.61-9.67,4.33-2.95,1.47-6.73,3.97-9.33,4.67Z"/>
  <path class="cls-1" d="m122,143h22v-32c-7.06,1.65-12.36,5.72-16.18,10.82-4.12,5.51-5.82,11.74-5.82,21.18h0Z"/>
</svg>